<svg width="21" height="21" viewBox="0 0 21 21" fill="none" xmlns="http://www.w3.org/2000/svg">
<path d="M6.74967 15.709L10.4997 11.959L14.2497 15.709L15.708 14.2507L11.958 10.5007L15.708 6.75065L14.2497 5.29232L10.4997 9.04232L6.74967 5.29232L5.29134 6.75065L9.04134 10.5007L5.29134 14.2507L6.74967 15.709ZM10.4997 20.9173C9.0587 20.9173 7.70454 20.6437 6.43718 20.0965C5.16981 19.55 4.06738 18.8079 3.12988 17.8704C2.19238 16.9329 1.45037 15.8305 0.903841 14.5632C0.356619 13.2958 0.0830078 11.9416 0.0830078 10.5007C0.0830078 9.05968 0.356619 7.70551 0.903841 6.43815C1.45037 5.17079 2.19238 4.06836 3.12988 3.13086C4.06738 2.19336 5.16981 1.451 6.43718 0.903776C7.70454 0.357248 9.0587 0.0839844 10.4997 0.0839844C11.9406 0.0839844 13.2948 0.357248 14.5622 0.903776C15.8295 1.451 16.932 2.19336 17.8695 3.13086C18.807 4.06836 19.549 5.17079 20.0955 6.43815C20.6427 7.70551 20.9163 9.05968 20.9163 10.5007C20.9163 11.9416 20.6427 13.2958 20.0955 14.5632C19.549 15.8305 18.807 16.9329 17.8695 17.8704C16.932 18.8079 15.8295 19.55 14.5622 20.0965C13.2948 20.6437 11.9406 20.9173 10.4997 20.9173ZM10.4997 18.834C12.8087 18.834 14.775 18.0225 16.3986 16.3996C18.0216 14.776 18.833 12.8097 18.833 10.5007C18.833 8.19162 18.0216 6.2253 16.3986 4.60169C14.775 2.97878 12.8087 2.16732 10.4997 2.16732C8.19065 2.16732 6.22467 2.97878 4.60176 4.60169C2.97815 6.2253 2.16634 8.19162 2.16634 10.5007C2.16634 12.8097 2.97815 14.776 4.60176 16.3996C6.22467 18.0225 8.19065 18.834 10.4997 18.834Z" fill="#CC0000"/>
</svg>
