<svg width="23" height="21" viewBox="0 0 23 21" fill="none" xmlns="http://www.w3.org/2000/svg">
<path d="M10.3278 15.5781C10.3278 15.8889 10.4512 16.187 10.671 16.4068C10.8908 16.6265 11.1888 16.75 11.4996 16.75C11.8104 16.75 12.1085 16.6265 12.3283 16.4068C12.5481 16.187 12.6715 15.8889 12.6715 15.5781C12.6715 15.2673 12.5481 14.9693 12.3283 14.7495C12.1085 14.5297 11.8104 14.4062 11.4996 14.4062C11.1888 14.4062 10.8908 14.5297 10.671 14.7495C10.4512 14.9693 10.3278 15.2673 10.3278 15.5781ZM10.7184 8.15625V12.6484C10.7184 12.7559 10.8063 12.8438 10.9137 12.8438H12.0856C12.193 12.8438 12.2809 12.7559 12.2809 12.6484V8.15625C12.2809 8.04883 12.193 7.96094 12.0856 7.96094H10.9137C10.8063 7.96094 10.7184 8.04883 10.7184 8.15625ZM22.3322 18.8984L12.1759 1.32031C12.0245 1.05908 11.7633 0.929688 11.4996 0.929688C11.236 0.929688 10.9723 1.05908 10.8234 1.32031L0.667123 18.8984C0.36683 19.4209 0.742806 20.0703 1.34339 20.0703H21.6559C22.2565 20.0703 22.6325 19.4209 22.3322 18.8984ZM3.20374 18.2173L11.4996 3.85693L19.7955 18.2173H3.20374Z" fill="#FCC11E"/>
</svg>
